<svg width="13" height="15" viewBox="0 0 13 15" fill="none" xmlns="http://www.w3.org/2000/svg">
<path d="M10.4418 2.2344C9.33132 1.12388 7.82513 0.5 6.25462 0.5C4.68411 0.5 3.17793 1.12388 2.06741 2.2344C0.95689 3.34492 0.333008 4.8511 0.333008 6.42161C0.333008 7.99212 0.95689 9.49831 2.06741 10.6088L5.74518 14.2936C5.81005 14.359 5.88724 14.4109 5.97228 14.4463C6.05732 14.4818 6.14854 14.5 6.24066 14.5C6.33279 14.5 6.42401 14.4818 6.50905 14.4463C6.59409 14.4109 6.67127 14.359 6.73615 14.2936L10.4418 10.5739C11.5477 9.46803 12.169 7.96813 12.169 6.40417C12.169 4.8402 11.5477 3.3403 10.4418 2.2344ZM9.44388 9.57598L6.25462 12.7792L3.06536 9.57598C2.43529 8.94533 2.00633 8.14203 1.83271 7.26763C1.65909 6.39323 1.74861 5.48699 2.08995 4.66346C2.43129 3.83993 3.00912 3.13608 3.75041 2.64089C4.49169 2.1457 5.36315 1.88141 6.25462 1.88141C7.14609 1.88141 8.01755 2.1457 8.75883 2.64089C9.50012 3.13608 10.0779 3.83993 10.4193 4.66346C10.7606 5.48699 10.8501 6.39323 10.6765 7.26763C10.5029 8.14203 10.074 8.94533 9.44388 9.57598ZM4.16101 4.27916C3.59764 4.84427 3.28128 5.60969 3.28128 6.40766C3.28128 7.20562 3.59764 7.97104 4.16101 8.53616C4.57957 8.95543 5.11262 9.24176 5.69329 9.35922C6.27396 9.47669 6.87639 9.42006 7.425 9.19645C7.97361 8.97283 8.44396 8.59218 8.77705 8.10225C9.11015 7.61233 9.29114 7.03495 9.29733 6.44255C9.30047 6.047 9.22428 5.65484 9.07325 5.28924C8.92221 4.92365 8.69941 4.59205 8.41801 4.31405C8.14143 4.03112 7.81162 3.80568 7.44757 3.6507C7.08352 3.49572 6.69242 3.41427 6.29677 3.41103C5.90112 3.40778 5.50874 3.48282 5.1422 3.6318C4.77566 3.78079 4.4422 4.0008 4.16101 4.27916ZM7.43402 7.54518C7.16956 7.81368 6.82004 7.98198 6.44523 8.0213C6.07041 8.06063 5.69358 7.96854 5.37915 7.76077C5.06472 7.55301 4.83222 7.24248 4.72141 6.88226C4.61059 6.52205 4.62834 6.13454 4.77162 5.78596C4.9149 5.43739 5.17481 5.14941 5.50691 4.97126C5.83902 4.79311 6.22269 4.73585 6.59234 4.80927C6.96199 4.88269 7.29466 5.08223 7.53347 5.37378C7.77228 5.66533 7.9024 6.03079 7.90159 6.40766C7.89144 6.83843 7.71072 7.24756 7.39913 7.54518H7.43402Z" fill="#8D8D8C"/>
</svg>
