<svg width="138" height="30" viewBox="0 0 138 30" fill="none" xmlns="http://www.w3.org/2000/svg">
<path d="M11.8894 6.7912C12.6689 6.01494 12.6752 4.75478 11.9034 3.97082L11.108 3.16292C10.3288 2.37148 9.05396 2.36649 8.26859 3.15181L0.585824 10.8342C0.210729 11.2093 0 11.718 0 12.2484V18.5689C0 18.5756 0.00268283 18.5821 0.00745511 18.5868V18.5868C0.0173333 18.5967 0.0333026 18.5967 0.0431799 18.5868L11.8894 6.7912ZM7.5014 16.414C6.72034 15.633 6.72034 14.3667 7.50139 13.5856L8.27705 12.8099C9.0581 12.0289 10.3244 12.0289 11.1055 12.8099L16.6865 18.3909C17.4675 19.172 17.4675 20.4383 16.6865 21.2194L15.9109 21.995C15.1298 22.776 13.8635 22.7761 13.0824 21.995L7.5014 16.414ZM18.0867 29.4926C18.0966 29.4827 18.0966 29.4667 18.0868 29.4568L6.2912 17.6106C5.51494 16.8311 4.25478 16.8248 3.47082 17.5966L2.66293 18.392C1.87148 19.1712 1.8665 20.446 2.65183 21.2314L10.3343 28.9142C10.7094 29.2893 11.2181 29.5 11.7485 29.5H18.0688C18.0755 29.5 18.082 29.4973 18.0867 29.4926V29.4926ZM10.9131 0.507394C10.9032 0.517237 10.9032 0.53319 10.9131 0.543054L22.7091 12.3896C23.4853 13.1692 24.7454 13.1755 25.5294 12.4037L26.3373 11.6083C27.1287 10.8292 27.1337 9.55434 26.3484 8.76896L18.6659 1.08584C18.2909 0.710737 17.7821 0.5 17.2517 0.5H10.9309C10.9242 0.5 10.9178 0.50266 10.9131 0.507394V0.507394ZM12.3074 11.6091C11.5264 10.8281 11.5263 9.56172 12.3074 8.78067L13.0831 8.005C13.8641 7.22395 15.1304 7.22395 15.9115 8.005L21.4926 13.5861C22.2737 14.3671 22.2737 15.6335 21.4926 16.4145L20.7169 17.1902C19.9359 17.9712 18.6696 17.9712 17.8885 17.1902L12.3074 11.6091ZM17.8919 26.8369C18.6711 27.6284 19.9459 27.6334 20.7313 26.848L28.4142 19.1651C28.7893 18.79 29 18.2813 29 17.7509V16.1844C29 14.4047 26.85 13.5114 25.5888 14.7672L17.1107 23.2088C16.3311 23.9851 16.3248 25.2452 17.0967 26.0292L17.8919 26.8369ZM27 29.5C28.1046 29.5 29 28.6046 29 27.5V25.8105C29 24.0287 26.8457 23.1364 25.5858 24.3963L23.8963 26.0858C22.6364 27.3457 23.5287 29.5 25.3105 29.5H27ZM3.41425 24.3967C2.15434 23.1367 0 24.029 0 25.8108V27.5C0 28.6046 0.895431 29.5 2 29.5H3.68905C5.47083 29.5 6.36318 27.3458 5.10331 26.0858L3.41425 24.3967ZM28.9574 8.9752C28.9671 8.98496 28.9829 8.98496 28.9927 8.9752V8.9752C28.9974 8.97052 29 8.96416 29 8.95754V2.5C29 1.39543 28.1046 0.5 27 0.5H25.311C23.5292 0.5 22.6369 2.6542 23.8967 3.91416L28.9574 8.9752ZM2 0.5C0.895431 0.5 0 1.39543 0 2.5V4.18901C0 5.97079 2.15424 6.86314 3.41418 5.60326L5.10327 3.91425C6.36324 2.65433 5.47092 0.5 3.68909 0.5H2Z" fill="#FF5200"/>
<path d="M130.371 25.8518C126.402 25.8518 123.621 22.9628 123.621 18.8318C123.621 14.6468 126.348 11.7578 130.263 11.7578C134.259 11.7578 136.797 14.4308 136.797 18.5888V19.5878L126.753 19.6148C126.996 21.9638 128.238 23.1518 130.425 23.1518C132.234 23.1518 133.422 22.4498 133.8 21.1808H136.851C136.284 24.0968 133.854 25.8518 130.371 25.8518ZM130.29 14.4578C128.346 14.4578 127.158 15.5108 126.834 17.5088H133.53C133.53 15.6728 132.261 14.4578 130.29 14.4578Z" fill="#F0F0F0"/>
<path d="M122.299 25.5001H119.032V5.41211H122.299V25.5001Z" fill="#F0F0F0"/>
<path d="M104.7 18.8048C104.7 14.6738 107.427 11.7578 111.369 11.7578C115.014 11.7578 117.498 13.7828 117.849 16.9958H114.555C114.177 15.4838 113.07 14.7008 111.504 14.7008C109.398 14.7008 107.994 16.2938 107.994 18.8048C107.994 21.3158 109.29 22.8818 111.396 22.8818C113.043 22.8818 114.204 22.0718 114.555 20.6138H117.876C117.471 23.7188 114.879 25.8518 111.396 25.8518C107.346 25.8518 104.7 23.0438 104.7 18.8048Z" fill="#F0F0F0"/>
<path d="M96.0103 25.8518C93.1753 25.8518 91.4473 24.2048 91.4473 21.6938C91.4473 19.2368 93.2293 17.6978 96.3883 17.4548L100.384 17.1578V16.8608C100.384 15.0518 99.3043 14.3228 97.6303 14.3228C95.6863 14.3228 94.6063 15.1328 94.6063 16.5368H91.7983C91.7983 13.6478 94.1743 11.7578 97.7923 11.7578C101.383 11.7578 103.597 13.7018 103.597 17.4008V25.5008H100.708L100.465 23.5298C99.8983 24.9068 98.0893 25.8518 96.0103 25.8518ZM97.0903 23.3678C99.1153 23.3678 100.411 22.1528 100.411 20.1008V19.3988L97.6303 19.6148C95.5783 19.8038 94.7953 20.4788 94.7953 21.5588C94.7953 22.7738 95.6053 23.3678 97.0903 23.3678Z" fill="#F0F0F0"/>
<path d="M80.7859 25.5008H77.4919V12.1628H80.5429L80.8129 13.8908C81.6499 12.5408 83.2699 11.7578 85.0789 11.7578C88.4269 11.7578 90.1549 13.8368 90.1549 17.2928V25.5008H86.8609V18.0758C86.8609 15.8348 85.7539 14.7548 84.0529 14.7548C82.0279 14.7548 80.7859 16.1588 80.7859 18.3188V25.5008Z" fill="#F0F0F0"/>
<path d="M66.2364 25.5008H62.9424V12.1628H65.9934L66.2634 13.8908C67.1004 12.5408 68.7204 11.7578 70.5294 11.7578C73.8774 11.7578 75.6054 13.8368 75.6054 17.2928V25.5008H72.3114V18.0758C72.3114 15.8348 71.2044 14.7548 69.5034 14.7548C67.4784 14.7548 66.2364 16.1588 66.2364 18.3188V25.5008Z" fill="#F0F0F0"/>
<path d="M59.242 9.48853C58.108 9.48853 57.217 8.59753 57.217 7.49053C57.217 6.38353 58.108 5.51953 59.242 5.51953C60.322 5.51953 61.213 6.38353 61.213 7.49053C61.213 8.59753 60.322 9.48853 59.242 9.48853ZM57.595 25.4995V12.1615H60.889V25.4995H57.595Z" fill="#F0F0F0"/>
<path d="M49.99 18.6967H45.643V25.5007H42.187V5.76367H49.99C53.959 5.76367 56.524 8.35567 56.524 12.2167C56.524 16.0237 53.932 18.6967 49.99 18.6967ZM49.315 8.84167H45.643V15.6187H49.261C51.637 15.6187 52.906 14.3497 52.906 12.1897C52.906 10.0297 51.61 8.84167 49.315 8.84167Z" fill="#F0F0F0"/>
</svg>
